<svg width="1319" height="281" viewBox="0 0 1319 281" fill="none" xmlns="http://www.w3.org/2000/svg">
<path d="M177.121 87.3225C164.271 24.6137 101.918 26.4173 101.918 26.4173C19.025 26.4173 24.186 140.736 24.186 140.736C24.186 258.939 101.918 255.332 101.918 255.332C180.176 255.332 182.388 159.049 182.388 159.049H78.1136V131.579H202.61V276.836H182.072V224.255H180.702C170.064 284.05 101.918 280.859 101.918 280.859C-2.56708 280.859 0.698066 140.597 0.698066 140.597C0.698066 -5.35329 101.918 0.751096 101.918 0.751096C189.234 0.751096 200.188 87.1837 200.188 87.1837H177.121V87.3225Z" fill="white"/>
<path d="M425.598 140.594C425.598 223.855 384.751 280.889 324.379 280.889C264.006 280.889 222.948 223.994 222.948 140.594C222.948 57.61 264.111 0.714722 324.379 0.714722C384.751 0.714722 425.598 57.7487 425.598 140.594ZM402.272 140.594C402.272 71.0706 371.875 26.2482 324.379 26.2482C276.988 26.2482 246.485 70.9318 246.485 140.594C246.485 210.533 276.882 255.217 324.379 255.217C371.769 255.217 402.272 210.533 402.272 140.594Z" fill="white"/>
<path d="M649.312 140.594C649.312 223.855 608.465 280.889 548.093 280.889C487.72 280.889 446.662 223.994 446.662 140.594C446.662 57.61 487.825 0.714722 548.093 0.714722C608.465 0.714722 649.312 57.7487 649.312 140.594ZM626.092 140.594C626.092 71.0706 595.694 26.2482 548.198 26.2482C500.808 26.2482 470.305 70.9318 470.305 140.594C470.305 210.533 500.702 255.217 548.198 255.217C595.589 255.217 626.092 210.533 626.092 140.594Z" fill="white"/>
<path d="M846.084 87.3225C833.234 24.6137 770.88 26.4173 770.88 26.4173C687.988 26.4173 693.149 140.736 693.149 140.736C693.149 258.939 770.88 255.332 770.88 255.332C849.139 255.332 851.35 159.049 851.35 159.049H747.076V131.579H871.573V276.836H851.034V224.255H849.665C839.027 284.05 770.88 280.859 770.88 280.859C666.396 280.859 669.661 140.597 669.661 140.597C669.661 -5.35329 770.88 0.751096 770.88 0.751096C858.197 0.751096 869.151 87.1837 869.151 87.1837H846.084V87.3225Z" fill="white"/>
<path d="M1094.56 140.594C1094.56 223.855 1053.71 280.889 993.341 280.889C932.969 280.889 891.911 223.994 891.911 140.594C891.911 57.61 933.074 0.714722 993.341 0.714722C1053.71 0.714722 1094.56 57.7487 1094.56 140.594ZM1071.24 140.594C1071.24 71.0706 1040.84 26.2482 993.341 26.2482C945.951 26.2482 915.448 70.9318 915.448 140.594C915.448 210.533 945.845 255.217 993.341 255.217C1040.73 255.217 1071.24 210.533 1071.24 140.594Z" fill="white"/>
<path d="M1318.27 140.594C1318.27 223.855 1277.43 280.889 1217.06 280.889C1156.68 280.889 1115.62 223.994 1115.62 140.594C1115.62 57.61 1156.79 0.714722 1217.06 0.714722C1277.43 0.714722 1318.27 57.7487 1318.27 140.594ZM1295.05 140.594C1295.05 71.0706 1264.66 26.2482 1217.16 26.2482C1169.77 26.2482 1139.27 70.9318 1139.27 140.594C1139.27 210.533 1169.67 255.217 1217.16 255.217C1264.55 255.217 1295.05 210.533 1295.05 140.594Z" fill="white"/>
<ellipse cx="313.775" cy="202.979" rx="26.5116" ry="34.9023" fill="white"/>
<ellipse cx="436.148" cy="226.407" rx="26.1484" ry="18.1683" fill="white"/>
<ellipse cx="1105.15" cy="226.407" rx="26.1484" ry="18.1683" fill="white"/>
<ellipse cx="536.763" cy="212.542" rx="26.5116" ry="34.9023" fill="white"/>
<ellipse cx="1019.78" cy="95.8819" rx="26.5116" ry="34.9023" fill="white"/>
<ellipse cx="1242.77" cy="105.444" rx="26.5116" ry="34.9023" fill="white"/>
<rect x="418.006" y="122.178" width="34.1382" height="28.6868" fill="white"/>
<rect x="1087.27" y="122.178" width="34.1382" height="28.6868" fill="white"/>
</svg>
